HIERARCHY
ROOT newVegas:Hips
{
	OFFSET 0.000000 96.479958 0.000000
	CHANNELS 6 Xposition Yposition Zposition Xrotation Yrotation Zrotation
	JOINT newVegas:Pelvis
	{
		OFFSET 0.000000 0.000000 0.000000
		CHANNELS 3 Xrotation Yrotation Zrotation
		JOINT newVegas:LeftUpLeg
		{
			OFFSET 18.735201 -5.666702 -4.541200
			CHANNELS 3 Xrotation Yrotation Zrotation
			JOINT newVegas:LeftLeg
			{
				OFFSET -0.021200 -31.938179 0.493100
				CHANNELS 3 Xrotation Yrotation Zrotation
				JOINT newVegas:LeftFoot
				{
					OFFSET 0.021200 -31.938179 -4.336299
					CHANNELS 3 Xrotation Yrotation Zrotation
					JOINT newVegas:LeftToeBase
					{
						OFFSET 0.943001 -26.722000 15.023500
						CHANNELS 3 Xrotation Yrotation Zrotation
						End Site
						{
							OFFSET 0.000000 30.670183 0.000000
						}
					}
				}
				JOINT newVegas:Left_PantLeg
				{
					OFFSET 0.663870 -9.044666 -1.108900
					CHANNELS 3 Xrotation Yrotation Zrotation
					End Site
					{
						OFFSET 1.415995 20.635357 0.000000
					}
				}
			}
		}
		JOINT newVegas:RightUpLeg
		{
			OFFSET -18.735201 -5.666702 -4.541200
			CHANNELS 3 Xrotation Yrotation Zrotation
			JOINT newVegas:RightLeg
			{
				OFFSET 0.018946 -31.938133 0.493100
				CHANNELS 3 Xrotation Yrotation Zrotation
				JOINT newVegas:RightFoot
				{
					OFFSET -0.018946 -31.938126 -4.336299
					CHANNELS 3 Xrotation Yrotation Zrotation
					JOINT newVegas:RightToeBase
					{
						OFFSET -0.943001 -26.722004 15.023500
						CHANNELS 3 Xrotation Yrotation Zrotation
						End Site
						{
							OFFSET 0.000000 30.670187 0.000000
						}
					}
				}
				JOINT newVegas:Right_PantLeg
				{
					OFFSET -0.661674 -9.044716 -1.108900
					CHANNELS 3 Xrotation Yrotation Zrotation
					End Site
					{
						OFFSET -1.415958 20.635269 0.000000
					}
				}
			}
		}
	}
	JOINT newVegas:Spine
	{
		OFFSET 0.000000 10.199997 -0.299500
		CHANNELS 3 Xrotation Yrotation Zrotation
		JOINT newVegas:Spine1
		{
			OFFSET 0.000000 11.900002 -1.516600
			CHANNELS 3 Xrotation Yrotation Zrotation
			JOINT newVegas:Spine2
			{
				OFFSET 0.000000 13.600006 -2.842500
				CHANNELS 3 Xrotation Yrotation Zrotation
				JOINT newVegas:Neck
				{
					OFFSET 0.000000 9.624100 -2.890100
					CHANNELS 3 Xrotation Yrotation Zrotation
					JOINT newVegas:Head
					{
						OFFSET 0.000000 14.068802 -1.351900
						CHANNELS 3 Xrotation Yrotation Zrotation
						JOINT newVegas:Hair_Back
						{
							OFFSET 0.000000 3.231903 -17.524799
							CHANNELS 3 Xrotation Yrotation Zrotation
							End Site
							{
								OFFSET 0.000000 19.849884 0.000000
							}
						}
						JOINT newVegas:Hair_Front
						{
							OFFSET 0.000000 31.260406 4.573800
							CHANNELS 3 Xrotation Yrotation Zrotation
							JOINT newVegas:Hair_Front1
							{
								OFFSET 0.000000 2.284103 11.993300
								CHANNELS 3 Xrotation Yrotation Zrotation
								JOINT newVegas:Hair_Front2
								{
									OFFSET 0.000000 2.284103 11.993300
									CHANNELS 3 Xrotation Yrotation Zrotation
									End Site
									{
										OFFSET 0.000000 12.208862 0.000000
									}
								}
							}
						}
						JOINT newVegas:Jowel
						{
							OFFSET 0.000000 -7.458206 6.864100
							CHANNELS 3 Xrotation Yrotation Zrotation
							End Site
							{
								OFFSET 0.000000 19.849884 0.000000
							}
						}
					}
				}
				JOINT newVegas:LeftShoulder
				{
					OFFSET 15.263000 10.923401 -0.547700
					CHANNELS 3 Xrotation Yrotation Zrotation
					JOINT newVegas:LeftArm
					{
						OFFSET 25.438599 -2.830597 -13.032500
						CHANNELS 3 Xrotation Yrotation Zrotation
						JOINT newVegas:LeftForeArm
						{
							OFFSET 29.960503 0.000000 0.000000
							CHANNELS 3 Xrotation Yrotation Zrotation
							JOINT newVegas:LeftHand
							{
								OFFSET 27.849251 0.000000 0.000000
								CHANNELS 3 Xrotation Yrotation Zrotation
								JOINT newVegas:LeftHandThumb1
								{
									OFFSET 4.487587 -3.305161 6.305391
									CHANNELS 3 Xrotation Yrotation Zrotation
									JOINT newVegas:LeftHandThumb2
									{
										OFFSET 5.480453 -3.164139 3.164143
										CHANNELS 3 Xrotation Yrotation Zrotation
										JOINT newVegas:LeftHandThumb3
										{
											OFFSET 5.159721 -2.978973 2.978967
											CHANNELS 3 Xrotation Yrotation Zrotation
											End Site
											{
												OFFSET 2.494507 5.926697 1.738678
											}
										}
									}
								}
								JOINT newVegas:LeftHandIndex1
								{
									OFFSET 18.578728 -0.527832 5.208049
									CHANNELS 3 Xrotation Yrotation Zrotation
									JOINT newVegas:LeftHandIndex2
									{
										OFFSET 3.192009 0.000000 0.000000
										CHANNELS 3 Xrotation Yrotation Zrotation
										JOINT newVegas:LeftHandIndex3
										{
											OFFSET 3.835129 0.000000 0.000000
											CHANNELS 3 Xrotation Yrotation Zrotation
											End Site
											{
												OFFSET -0.034599 3.816971 0.371180
											}
										}
									}
								}
								JOINT newVegas:LeftHandMiddle1
								{
									OFFSET 18.476105 0.000000 0.000000
									CHANNELS 3 Xrotation Yrotation Zrotation
									JOINT newVegas:LeftHandMiddle2
									{
										OFFSET 3.324875 0.000000 0.000000
										CHANNELS 3 Xrotation Yrotation Zrotation
										JOINT newVegas:LeftHandMiddle3
										{
											OFFSET 4.596550 0.000000 0.000000
											CHANNELS 3 Xrotation Yrotation Zrotation
											End Site
											{
												OFFSET 0.057701 4.578827 0.399218
											}
										}
									}
								}
								JOINT newVegas:LeftHandRing1
								{
									OFFSET 17.732719 0.121887 -4.201567
									CHANNELS 3 Xrotation Yrotation Zrotation
									JOINT newVegas:LeftHandRing2
									{
										OFFSET 2.733170 0.000000 0.000000
										CHANNELS 3 Xrotation Yrotation Zrotation
										JOINT newVegas:LeftHandRing3
										{
											OFFSET 3.178268 0.000000 0.000000
											CHANNELS 3 Xrotation Yrotation Zrotation
											End Site
											{
												OFFSET 0.119102 3.170624 0.185394
											}
										}
									}
								}
								JOINT newVegas:LeftHandPinky1
								{
									OFFSET 15.989624 -0.606689 -7.535461
									CHANNELS 3 Xrotation Yrotation Zrotation
									JOINT newVegas:LeftHandPinky2
									{
										OFFSET 2.538986 0.000000 0.000000
										CHANNELS 3 Xrotation Yrotation Zrotation
										JOINT newVegas:LeftHandPinky3
										{
											OFFSET 2.593102 0.000000 0.000000
											CHANNELS 3 Xrotation Yrotation Zrotation
											End Site
											{
												OFFSET -0.150902 2.584198 0.152708
											}
										}
									}
								}
							}
							JOINT newVegas:Left_Sleeve
							{
								OFFSET 0.267448 -0.649796 0.577675
								CHANNELS 3 Xrotation Yrotation Zrotation
								End Site
								{
									OFFSET 0.000000 15.991241 0.000000
								}
							}
							JOINT newVegas:Left_CapeC
							{
								OFFSET 15.715958 -8.608795 -6.935905
								CHANNELS 3 Xrotation Yrotation Zrotation
								JOINT newVegas:Left_CapeC1
								{
									OFFSET 0.000000 -8.688499 0.000000
									CHANNELS 3 Xrotation Yrotation Zrotation
									End Site
									{
										OFFSET 0.000000 8.688499 0.000000
									}
								}
							}
						}
						JOINT newVegas:Left_CapeB
						{
							OFFSET 26.118385 -8.608795 -7.079235
							CHANNELS 3 Xrotation Yrotation Zrotation
							JOINT newVegas:Left_CapeB1
							{
								OFFSET 0.000000 -8.688499 0.000000
								CHANNELS 3 Xrotation Yrotation Zrotation
								End Site
								{
									OFFSET 0.000000 8.688499 0.000000
								}
							}
						}
						JOINT newVegas:Left_CapeA
						{
							OFFSET 5.115639 -8.608795 -10.395809
							CHANNELS 3 Xrotation Yrotation Zrotation
							JOINT newVegas:Left_CapeA1
							{
								OFFSET 0.000000 -8.688499 0.000000
								CHANNELS 3 Xrotation Yrotation Zrotation
								End Site
								{
									OFFSET 0.000000 8.688499 0.000000
								}
							}
						}
					}
				}
				JOINT newVegas:RightShoulder
				{
					OFFSET -15.263000 10.923401 -0.547700
					CHANNELS 3 Xrotation Yrotation Zrotation
					JOINT newVegas:RightArm
					{
						OFFSET -25.438599 -2.830597 -13.032500
						CHANNELS 3 Xrotation Yrotation Zrotation
						JOINT newVegas:RightForeArm
						{
							OFFSET -29.960503 0.000000 0.000000
							CHANNELS 3 Xrotation Yrotation Zrotation
							JOINT newVegas:RightHand
							{
								OFFSET -27.849251 0.000000 0.000000
								CHANNELS 3 Xrotation Yrotation Zrotation
								JOINT newVegas:RightHandThumb1
								{
									OFFSET -4.487587 -3.305161 6.305391
									CHANNELS 3 Xrotation Yrotation Zrotation
									JOINT newVegas:RightHandThumb2
									{
										OFFSET -5.480453 -3.164139 3.164143
										CHANNELS 3 Xrotation Yrotation Zrotation
										JOINT newVegas:RightHandThumb3
										{
											OFFSET -5.159721 -2.978973 2.978967
											CHANNELS 3 Xrotation Yrotation Zrotation
											End Site
											{
												OFFSET -2.494507 5.926697 1.738678
											}
										}
									}
								}
								JOINT newVegas:RightHandIndex1
								{
									OFFSET -18.578728 -0.527832 5.208049
									CHANNELS 3 Xrotation Yrotation Zrotation
									JOINT newVegas:RightHandIndex2
									{
										OFFSET -3.192009 0.000000 0.000000
										CHANNELS 3 Xrotation Yrotation Zrotation
										JOINT newVegas:RightHandIndex3
										{
											OFFSET -3.835129 0.000000 0.000000
											CHANNELS 3 Xrotation Yrotation Zrotation
											End Site
											{
												OFFSET 0.034599 3.816971 0.371180
											}
										}
									}
								}
								JOINT newVegas:RightHandMiddle1
								{
									OFFSET -18.476105 0.000000 0.000000
									CHANNELS 3 Xrotation Yrotation Zrotation
									JOINT newVegas:RightHandMiddle2
									{
										OFFSET -3.324875 0.000000 0.000000
										CHANNELS 3 Xrotation Yrotation Zrotation
										JOINT newVegas:RightHandMiddle3
										{
											OFFSET -4.596550 0.000000 0.000000
											CHANNELS 3 Xrotation Yrotation Zrotation
											End Site
											{
												OFFSET -0.057701 4.578827 0.399218
											}
										}
									}
								}
								JOINT newVegas:RightHandRing1
								{
									OFFSET -17.732719 0.121887 -4.201567
									CHANNELS 3 Xrotation Yrotation Zrotation
									JOINT newVegas:RightHandRing2
									{
										OFFSET -2.733170 0.000000 0.000000
										CHANNELS 3 Xrotation Yrotation Zrotation
										JOINT newVegas:RightHandRing3
										{
											OFFSET -3.178268 0.000000 0.000000
											CHANNELS 3 Xrotation Yrotation Zrotation
											End Site
											{
												OFFSET -0.119102 3.170624 0.185394
											}
										}
									}
								}
								JOINT newVegas:RightHandPinky1
								{
									OFFSET -15.989624 -0.606689 -7.535461
									CHANNELS 3 Xrotation Yrotation Zrotation
									JOINT newVegas:RightHandPinky2
									{
										OFFSET -2.538986 0.000000 0.000000
										CHANNELS 3 Xrotation Yrotation Zrotation
										JOINT newVegas:RightHandPinky3
										{
											OFFSET -2.593102 0.000000 0.000000
											CHANNELS 3 Xrotation Yrotation Zrotation
											End Site
											{
												OFFSET 0.150902 2.584198 0.152708
											}
										}
									}
								}
							}
							JOINT newVegas:Right_CapeC
							{
								OFFSET -15.715958 -8.608795 -6.935905
								CHANNELS 3 Xrotation Yrotation Zrotation
								JOINT newVegas:Right_CapeC1
								{
									OFFSET 0.000000 -8.688499 0.000000
									CHANNELS 3 Xrotation Yrotation Zrotation
									End Site
									{
										OFFSET 0.000000 8.688499 0.000000
									}
								}
							}
							JOINT newVegas:Right_Sleeve
							{
								OFFSET -0.267448 -0.649994 0.577675
								CHANNELS 3 Xrotation Yrotation Zrotation
								End Site
								{
									OFFSET 0.000000 15.991302 0.000000
								}
							}
						}
						JOINT newVegas:Right_CapeA
						{
							OFFSET -5.115540 -8.608795 -10.395824
							CHANNELS 3 Xrotation Yrotation Zrotation
							JOINT newVegas:Right_CapeA1
							{
								OFFSET 0.000000 -8.688499 0.000000
								CHANNELS 3 Xrotation Yrotation Zrotation
								End Site
								{
									OFFSET 0.000000 8.688499 0.000000
								}
							}
						}
						JOINT newVegas:Right_CapeB
						{
							OFFSET -26.118187 -8.608795 -7.079266
							CHANNELS 3 Xrotation Yrotation Zrotation
							JOINT newVegas:Right_CapeB1
							{
								OFFSET 0.000000 -8.688499 0.000000
								CHANNELS 3 Xrotation Yrotation Zrotation
								End Site
								{
									OFFSET 0.000000 8.688499 0.000000
								}
							}
						}
					}
				}
				JOINT newVegas:Left_Collar
				{
					OFFSET 18.625099 8.655502 8.828100
					CHANNELS 3 Xrotation Yrotation Zrotation
					JOINT newVegas:Left_Collar1
					{
						OFFSET 14.783401 10.540405 -1.259500
						CHANNELS 3 Xrotation Yrotation Zrotation
						End Site
						{
							OFFSET 0.000000 18.199875 0.000000
						}
					}
				}
				JOINT newVegas:Collar_Back
				{
					OFFSET 0.000000 15.630707 -20.132601
					CHANNELS 3 Xrotation Yrotation Zrotation
					End Site
					{
						OFFSET 0.000000 22.523010 0.000000
					}
				}
				JOINT newVegas:Left_Peck
				{
					OFFSET 17.239599 -5.132599 25.482599
					CHANNELS 3 Xrotation Yrotation Zrotation
					End Site
					{
						OFFSET 0.000000 22.523010 0.000000
					}
				}
				JOINT newVegas:Right_Peck
				{
					OFFSET -17.239599 -5.132202 25.482599
					CHANNELS 3 Xrotation Yrotation Zrotation
					End Site
					{
						OFFSET 0.000000 22.523010 0.000000
					}
				}
				JOINT newVegas:Right_Collar
				{
					OFFSET -18.625099 8.655792 8.828100
					CHANNELS 3 Xrotation Yrotation Zrotation
					JOINT newVegas:Right_Collar1
					{
						OFFSET -14.783401 10.539993 -1.259500
						CHANNELS 3 Xrotation Yrotation Zrotation
						End Site
						{
							OFFSET 0.000000 18.199631 0.000000
						}
					}
				}
			}
		}
		JOINT newVegas:Belly
		{
			OFFSET 0.000000 -6.540398 9.014299
			CHANNELS 3 Xrotation Yrotation Zrotation
			End Site
			{
				OFFSET 0.000000 11.566666 0.000000
			}
		}
	}
	JOINT newVegas:ElvisFacialAnim_Joint
	{
		OFFSET 1.000000 -95.330101 -8.825800
		CHANNELS 3 Xrotation Yrotation Zrotation
		End Site
		{
			OFFSET 0.000000 35.315800 0.000000
		}
	}
}
MOTION
Frames: 4
Frame Time: 0.033333
12.274680 87.673874 25.537037 12.699264 -1.384593 3.148770 -0.000000 -0.000000 -0.000000 -24.781214 5.893061 21.410259 27.054065 -1.683072 -0.885034 -3.192958 26.427530 -18.010707 0.000000 -0.000002 -0.000000 0.000001 0.000000 0.000001 -47.827973 20.581781 -11.600542 33.498711 -0.136598 0.850749 3.161932 -2.528363 17.697063 -0.000000 -0.000000 0.000000 -0.000001 -0.000001 -0.000000 5.703374 -6.457293 0.457357 11.601026 -12.991763 1.754973 11.601014 -12.991754 1.754970 -0.352741 1.502523 -2.194226 -0.352733 1.502530 -2.194237 0.000000 0.000002 -0.000000 -0.352714 1.502533 -2.194236 -0.352771 1.502516 -2.194234 0.000002 -0.000001 0.000001 0.000000 0.000002 -0.000000 0.338851 14.298874 -20.282441 7.562880 -10.474355 -19.682459 184.010009 -108.172540 183.810376 11.131367 -2.131324 1.682956 -2.922634 -9.180332 15.085998 13.437332 34.195605 -11.326178 0.000001 0.000001 -0.000006 -5.559844 13.441055 -12.416542 0.663445 0.911449 -10.852529 0.000000 -0.000000 0.000001 6.082823 8.370285 -16.914173 -0.313745 -1.559696 -35.021358 0.000000 -0.000001 0.000001 3.394361 8.725844 -31.558633 -0.560946 -1.059595 -23.999523 0.000001 -0.000001 0.000001 4.818144 1.412852 -38.346690 -0.840518 -3.202775 -18.891513 -0.000001 0.000000 0.000000 -0.000002 0.000000 -0.000001 -0.000002 0.000000 -0.000001 -0.000002 0.000000 -0.000001 -0.000001 0.000001 0.000002 -0.000001 0.000000 0.000002 -0.000001 0.000001 0.000002 -0.000002 -0.000000 0.000001 1.801320 0.199415 15.991430 50.771402 29.275581 24.590616 -0.437781 64.874230 0.432207 -6.777344 6.499169 -9.005342 7.924754 -9.484320 -10.192054 14.906751 -30.898768 8.016833 0.000001 -0.000005 0.000001 -7.468650 -4.447896 35.427054 2.930745 -0.081058 56.847149 -0.000001 -0.000001 -0.000000 -1.424609 -5.324327 30.767342 -1.972137 3.064126 60.824166 0.000001 0.000002 -0.000000 0.025261 -5.219251 35.339068 -3.722054 1.443546 51.860482 0.000000 -0.000001 -0.000000 -2.129626 -2.962425 37.628694 -4.097070 2.711979 47.204114 0.000001 0.000002 -0.000000 0.000001 -0.000000 0.000000 0.000001 -0.000000 0.000000 0.000001 -0.000000 0.000000 -0.000003 0.000001 0.000000 -0.000003 0.000002 0.000002 -0.000003 0.000001 0.000000 -0.000003 0.000002 0.000001 0.000002 -0.000001 0.000002 0.000002 -0.000001 0.000002 0.000002 -0.000001 0.000002 0.000002 -0.000001 0.000002 0.000002 -0.000001 0.000002 0.000002 -0.000001 0.000002 0.000002 -0.000001 0.000002 -0.000001 0.000000 0.000000 -0.000000 -0.000000 -0.000000 
9.516783 87.970360 25.707022 10.930219 1.353619 2.464183 0.000000 0.000000 -0.000000 -19.686627 2.931925 22.856202 18.821959 -1.080053 -0.544463 3.313617 26.299099 -21.600127 -0.000000 0.000002 -0.000000 0.000001 0.000000 0.000002 -47.365910 17.210091 -9.998382 36.303545 0.427580 1.341462 1.864125 -4.875313 14.288959 -0.000000 0.000000 0.000000 0.000000 0.000001 -0.000001 5.480734 -6.329007 0.894586 11.169525 -12.755049 2.442022 11.169525 -12.755046 2.442023 -0.422648 1.471120 -2.123060 -0.422639 1.471125 -2.123062 -0.000000 0.000003 -0.000000 -0.422617 1.471124 -2.123060 -0.422717 1.471165 -2.123060 -0.000000 0.000001 -0.000000 -0.000000 0.000003 -0.000000 0.657824 14.901825 -20.589201 7.414596 -10.263766 -22.014922 183.469932 -110.959094 183.240643 11.948026 -2.642632 1.214279 -2.922630 -9.180328 15.086003 13.437328 34.195612 -11.326192 0.000001 -0.000001 -0.000001 -5.546580 13.449367 -12.474992 0.663670 0.912829 -10.874118 0.000003 0.000000 -0.000001 6.110723 8.361906 -16.918235 -0.313724 -1.559700 -35.021365 -0.000000 -0.000001 0.000001 3.394376 8.725859 -31.558623 -0.560968 -1.059595 -23.999546 -0.000000 -0.000002 -0.000000 4.818145 1.412863 -38.346687 -0.840508 -3.202774 -18.891508 0.000000 0.000000 0.000001 -0.000001 -0.000001 0.000001 -0.000001 -0.000001 0.000001 -0.000002 -0.000001 0.000001 -0.000003 -0.000001 -0.000000 -0.000003 -0.000002 0.000001 -0.000003 -0.000001 -0.000000 -0.000005 -0.000002 -0.000001 2.099438 -0.440929 14.891351 50.533452 31.676163 24.524318 -0.315020 60.788308 0.306616 -10.777712 9.489576 -6.537904 10.758239 -9.616946 -9.535163 13.587301 -29.250203 7.539860 -0.000000 -0.000003 0.000001 -6.561866 -5.570993 37.658050 3.140569 0.370827 61.589148 -0.000002 -0.000001 0.000000 -1.478550 -5.546193 33.519218 -2.245690 3.200338 65.481918 0.000001 0.000001 -0.000004 -0.224472 -4.694238 37.969729 -4.308631 1.336545 56.208338 0.000000 0.000003 -0.000003 -3.030283 -2.658817 39.528852 -4.677524 2.540274 51.972911 0.000000 -0.000000 0.000002 -0.000000 0.000001 0.000001 -0.000000 0.000001 0.000001 -0.000000 0.000001 0.000002 -0.000001 -0.000003 0.000003 -0.000001 -0.000003 0.000003 -0.000001 -0.000003 0.000003 -0.000001 -0.000003 0.000003 0.000002 0.000000 -0.000001 0.000002 0.000000 -0.000001 0.000002 0.000000 -0.000001 0.000002 0.000000 -0.000001 0.000002 0.000000 -0.000001 0.000002 0.000000 -0.000001 0.000002 0.000000 -0.000001 0.000001 0.000000 -0.000000 0.000000 0.000000 -0.000000 
6.909992 88.246635 25.777311 9.064365 2.673827 2.055595 -0.000001 0.000000 -0.000000 -15.948575 0.045053 22.586391 18.528874 -0.277897 -0.433888 2.435011 27.085463 -20.045405 0.000000 0.000001 -0.000000 -0.000001 0.000001 0.000004 -46.772230 14.388507 -8.233786 38.697301 0.716022 1.555882 0.338173 -5.100123 11.337325 -0.000000 0.000000 0.000000 0.000000 -0.000001 0.000000 5.611474 -6.155727 1.007823 11.418695 -12.438173 2.548642 11.418702 -12.438175 2.548643 -0.647802 1.513978 -2.083382 -0.647846 1.514001 -2.083383 0.000002 0.000000 -0.000000 -0.647791 1.513969 -2.083383 -0.647817 1.514024 -2.083392 -0.000001 0.000001 -0.000000 0.000002 0.000000 -0.000001 0.969577 15.084719 -21.073429 7.159404 -10.624745 -24.373341 183.061637 -113.879204 182.799782 13.787042 -2.245270 1.209121 -2.922629 -9.180331 15.086003 13.437329 34.195585 -11.326193 0.000001 -0.000000 -0.000008 -5.540904 13.452928 -12.500058 0.663752 0.913399 -10.883383 -0.000000 0.000000 0.000000 6.122678 8.358295 -16.919984 -0.313739 -1.559710 -35.021378 -0.000001 -0.000000 0.000002 3.394352 8.725847 -31.558633 -0.560957 -1.059577 -23.999546 0.000000 -0.000001 -0.000000 4.818138 1.412866 -38.346697 -0.840498 -3.202762 -18.891504 0.000001 -0.000002 -0.000000 -0.000001 0.000000 0.000000 -0.000001 0.000000 0.000000 -0.000002 0.000001 0.000000 0.000001 -0.000002 -0.000000 0.000002 -0.000003 -0.000001 0.000001 -0.000002 -0.000000 -0.000000 -0.000003 -0.000002 2.467163 -1.914283 13.049722 46.309454 37.010852 25.481151 -0.058123 54.031998 0.068995 -13.676073 13.401336 -3.736215 13.652592 -9.667426 -8.807879 12.270274 -27.543735 7.116864 -0.000003 0.000000 0.000003 -5.550461 -6.656681 39.984651 3.278371 0.870465 66.466497 0.000000 -0.000000 0.000002 -1.505588 -5.784004 36.351643 -2.537755 3.317030 70.275318 0.000000 0.000000 0.000002 -0.523254 -4.170026 40.673312 -4.892716 1.149737 60.681252 -0.000001 0.000001 -0.000003 -3.972666 -2.394868 41.489291 -5.227054 2.286323 56.877816 0.000001 -0.000002 -0.000000 0.000000 0.000001 0.000001 0.000002 0.000000 0.000000 0.000000 0.000001 0.000000 0.000002 0.000000 -0.000002 0.000002 0.000001 0.000001 0.000002 0.000000 -0.000002 0.000002 0.000001 0.000003 -0.000002 -0.000000 0.000002 -0.000002 -0.000000 0.000002 -0.000002 -0.000000 0.000002 -0.000002 -0.000000 0.000002 -0.000002 -0.000000 0.000002 -0.000002 -0.000000 0.000002 -0.000002 -0.000000 0.000002 -0.000000 0.000000 -0.000000 -0.000001 0.000000 -0.000000 
4.466342 88.483246 25.756035 7.352354 2.714241 2.413313 -0.000001 -0.000000 -0.000000 -13.273956 -1.654042 19.501498 24.746527 0.999427 -0.487923 -4.672582 27.361936 -14.175907 -0.000000 -0.000001 -0.000001 0.000000 0.000000 0.000001 -46.484792 12.445380 -6.648568 40.417153 0.833090 1.608751 -0.387919 -4.433593 8.672183 -0.000000 -0.000000 0.000000 0.000000 -0.000001 0.000000 5.689467 -5.946359 0.795841 11.523797 -12.093216 1.977355 11.523784 -12.093217 1.977352 -0.743120 1.592840 -2.097164 -0.743128 1.592842 -2.097167 0.000004 0.000000 -0.000000 -0.743128 1.592856 -2.097167 -0.743119 1.592848 -2.097172 0.000001 0.000001 -0.000000 0.000004 0.000000 -0.000000 1.202187 14.649933 -21.862066 6.819629 -11.329368 -26.779514 182.823127 -116.348666 182.530057 16.157004 -0.998901 1.361686 -2.922627 -9.180336 15.086010 13.437320 34.195615 -11.326184 0.000001 -0.000002 -0.000003 -5.541542 13.452519 -12.497276 0.663761 0.913372 -10.882353 -0.000002 -0.000001 0.000001 6.121356 8.358682 -16.919779 -0.313735 -1.559715 -35.021361 0.000000 -0.000000 -0.000001 3.394362 8.725850 -31.558623 -0.560951 -1.059593 -23.999540 0.000002 -0.000001 0.000000 4.818144 1.412849 -38.346693 -0.840516 -3.202779 -18.891513 0.000001 -0.000005 -0.000001 -0.000002 0.000000 0.000003 -0.000002 0.000000 0.000003 -0.000002 0.000000 0.000003 -0.000000 -0.000002 -0.000002 0.000000 -0.000003 -0.000001 -0.000000 -0.000002 -0.000002 -0.000002 -0.000003 -0.000004 2.873291 -3.709444 11.419164 37.651595 42.541997 30.846381 0.207263 45.541932 -0.138035 -13.551161 16.977023 -0.564439 16.569424 -9.625699 -8.022626 10.968739 -25.799404 6.753904 0.000005 0.000000 0.000001 -4.443822 -7.682904 42.383363 3.333067 1.404154 71.425378 -0.000002 0.000000 -0.000000 -1.502712 -6.033419 39.233112 -2.843683 3.410465 75.150509 0.000000 0.000001 0.000006 -0.869520 -3.656465 43.419936 -5.457841 0.882669 65.227945 -0.000001 -0.000003 -0.000000 -4.944995 -2.177723 43.487606 -5.727272 1.955080 61.862663 -0.000001 0.000003 -0.000001 -0.000001 -0.000000 -0.000000 -0.000001 0.000000 -0.000000 -0.000001 -0.000000 -0.000000 0.000003 0.000000 0.000002 0.000003 0.000001 0.000001 0.000003 0.000000 0.000002 0.000003 0.000000 0.000002 -0.000000 0.000001 -0.000000 -0.000000 0.000001 -0.000000 -0.000000 0.000001 -0.000000 -0.000000 0.000001 -0.000000 -0.000000 0.000001 -0.000000 -0.000000 0.000001 -0.000000 -0.000000 0.000001 -0.000000 0.000000 0.000000 -0.000000 -0.000001 -0.000000 -0.000000 
